HIERARCHY
ROOT Hips
{
	OFFSET -3.958830 18.904000 13.208200
	CHANNELS 6 Xposition Yposition Zposition Zrotation Yrotation Xrotation 
	JOINT LHipJoint
	{
		OFFSET 0.000000 0.000000 0.000000
		CHANNELS 3 Zrotation Yrotation Xrotation
		JOINT LeftUpLeg
		{
			OFFSET 1.800000 -1.400000 0.085000
			CHANNELS 3 Zrotation Yrotation Xrotation
			JOINT LeftLeg
			{
				OFFSET 2.215000 -6.000000 0.000000
				CHANNELS 3 Zrotation Yrotation Xrotation
				JOINT LeftFoot
				{
					OFFSET 2.500000 -6.900000 0.000000
					CHANNELS 3 Zrotation Yrotation Xrotation
					JOINT LeftToeBase
					{
						OFFSET 0.200000 -0.500000 1.950000
						CHANNELS 3 Zrotation Yrotation Xrotation
						End Site
						{
							OFFSET 0.000000 0.000000 0.000000
						}
					}
				}
			}
		}
	}
	JOINT RHipJoint
	{
		OFFSET 0.000000 0.000000 0.000000
		CHANNELS 3 Zrotation Yrotation Xrotation
		JOINT RightUpLeg
		{
			OFFSET -1.800000 -1.400000 0.085000
			CHANNELS 3 Zrotation Yrotation Xrotation
			JOINT RightLeg
			{
				OFFSET -2.215000 -6.000000 0.000000
				CHANNELS 3 Zrotation Yrotation Xrotation
				JOINT RightFoot
				{
					OFFSET -2.500000 -6.900000 0.000000
					CHANNELS 3 Zrotation Yrotation Xrotation
					JOINT RightToeBase
					{
						OFFSET -0.200000 -0.500000 1.950000
						CHANNELS 3 Zrotation Yrotation Xrotation
						End Site
						{
							OFFSET 0.000000 0.000000 0.000000
						}
					}
				}
			}
		}
	}
	JOINT LowerBack
	{
		OFFSET 0.000000 0.000000 0.000000
		CHANNELS 3 Zrotation Yrotation Xrotation
		JOINT Spine
		{
			OFFSET -0.087000 1.940000 -0.288900
			CHANNELS 3 Zrotation Yrotation Xrotation
			JOINT Spine1
			{
				OFFSET 0.000000 1.950000 0.060000
				CHANNELS 3 Zrotation Yrotation Xrotation
				JOINT Neck
				{
					OFFSET 0.000000 0.000000 0.000000
					CHANNELS 3 Zrotation Yrotation Xrotation
					JOINT Neck1
					{
						OFFSET 0.000000 1.600000 0.340000
						CHANNELS 3 Zrotation Yrotation Xrotation
						JOINT Head
						{
							OFFSET 0.000000 1.667000 -0.240000
							CHANNELS 3 Zrotation Yrotation Xrotation
							End Site
							{
								OFFSET 0.000000 0.000000 0.000000
							}
						}
					}
				}
				JOINT LeftShoulder
				{
					OFFSET 0.000000 0.000000 0.000000
					CHANNELS 3 Zrotation Yrotation Xrotation
					JOINT LeftArm
					{
						OFFSET 2.700000 1.550000 -0.730000
						CHANNELS 3 Zrotation Yrotation Xrotation
						JOINT LeftForeArm
						{
							OFFSET 5.450000 0.000000 0.000000
							CHANNELS 3 Zrotation Yrotation Xrotation
							JOINT LeftHand
							{
								OFFSET 3.450000 0.000000 0.000000
								CHANNELS 3 Zrotation Yrotation Xrotation
								JOINT LeftHandIndex1
								{
									OFFSET 0.750000 0.000000 0.000000
									CHANNELS 3 Zrotation Yrotation Xrotation
									End Site
									{
										OFFSET 0.000000 0.000000 0.000000
									}
								}
							}
						}
					}
				}
				JOINT RightShoulder
				{
					OFFSET 0.000000 0.000000 0.000000
					CHANNELS 3 Zrotation Yrotation Xrotation
					JOINT RightArm
					{
						OFFSET -2.700000 1.550000 -0.730000
						CHANNELS 3 Zrotation Yrotation Xrotation
						JOINT RightForeArm
						{
							OFFSET -5.450000 0.000000 0.000000
							CHANNELS 3 Zrotation Yrotation Xrotation
							JOINT RightHand
							{
								OFFSET -3.450000 0.000000 0.000000
								CHANNELS 3 Zrotation Yrotation Xrotation
								JOINT RightHandIndex1
								{
									OFFSET -0.750000 0.000000 0.000000
									CHANNELS 3 Zrotation Yrotation Xrotation
									End Site
									{
										OFFSET 0.000000 0.000000 0.000000
									}
								}
							}
						}
					}
				}
			}
		}
	}
}
MOTION
Frames: 14
Frame Time: 0.016667
-1.644920 17.275340 -1.614240 -1.525499 22.010849 -2.262609 -15.383722 13.779170 3.141577 1.223910 -1.960761 -4.213771 -6.758554 10.819448 36.411925 0.248168 7.346279 2.052746 0.686880 0.160020 0.804820 17.914724 -10.662528 3.394103 3.060678 4.961849 -19.305052 9.090666 -7.255382 27.176062 -0.611148 -3.839215 3.181112 -0.023710 -0.334410 0.167590 -3.313957 -2.191581 -8.360537 7.784112 -1.170575 23.269452 0.385050 0.794455 -9.605423 2.757965 5.247780 -6.538292 6.575216 -8.453500 47.321470 -0.962430 -2.191300 -20.020540 -11.203175 14.283651 -1.216727 -30.874358 21.206979 -10.975512 45.148540 -55.592870 -18.340310 -3.220249 2.693775 1.016650 -0.264690 0.306630 0.088930 6.382697 -16.016227 3.314447 54.424856 -18.876342 -21.197700 24.441357 56.316881 8.841632 1.823133 -1.601462 -0.121820 0.032460 -0.287070 -0.503920 
-1.662250 17.278630 -1.637550 -1.628498 21.818213 -2.283975 -15.375600 13.789814 3.141208 0.999391 -1.879006 -4.136876 -6.585196 10.689002 36.116983 0.252019 7.262501 2.079638 0.670240 0.140530 0.794190 17.920008 -10.627228 3.448918 2.992012 5.372907 -20.191694 9.140982 -7.401303 28.335023 -0.622688 -3.946074 3.137795 -0.041600 -0.342120 0.164440 -3.331764 -2.225457 -8.402252 8.011578 -1.321817 24.124576 0.304346 0.764196 -10.146694 2.558872 5.022007 -6.951070 6.190303 -8.126920 47.527442 -0.786880 -2.040500 -19.737570 -10.762364 13.830673 -0.877319 -30.090051 21.769619 -10.732539 43.875455 -54.714224 -17.285193 -3.218326 2.730940 1.014490 -0.272490 0.304670 0.081430 6.197080 -15.294654 3.543763 54.005304 -18.757071 -20.992233 24.035962 56.549874 8.792302 1.838968 -1.602454 -0.118040 0.016360 -0.283110 -0.502700 
-1.686920 17.275030 -1.672400 -1.899436 21.893925 -2.172675 -15.370415 13.797769 3.104905 0.691536 -1.681083 -3.896172 -6.072916 10.279080 35.214193 0.236957 7.048346 2.162174 0.644270 0.113560 0.769110 17.930055 -10.553174 3.549332 2.811834 6.072255 -21.762972 9.488025 -7.719273 30.097385 -0.644228 -4.155553 3.061592 -0.064260 -0.331240 0.166200 -3.356109 -2.279180 -8.437283 8.428168 -1.525101 24.994213 0.418906 0.737290 -10.368586 2.250285 4.818726 -7.464722 5.846545 -7.822008 46.696524 -0.648570 -1.936650 -19.160420 -9.983261 13.017826 -0.351886 -28.878889 22.676111 -10.538334 40.630234 -54.052341 -15.531261 -3.218692 2.802784 0.997090 -0.266280 0.292060 0.081140 5.838700 -14.244925 3.851899 53.282448 -18.677460 -20.846741 23.469419 57.165487 8.706723 1.848001 -1.620449 -0.113270 0.000850 -0.276250 -0.492110 
-1.721250 17.274540 -1.721400 -1.996555 22.025379 -1.951847 -15.373141 13.807370 3.068897 0.274884 -1.428195 -3.530407 -5.484593 9.807065 34.061834 0.238717 6.789098 2.273764 0.618660 0.084650 0.745200 17.933089 -10.459872 3.672143 2.319108 6.881650 -23.734793 9.873907 -8.042865 31.973380 -0.669261 -4.384248 2.987161 -0.096350 -0.312390 0.168040 -3.357500 -2.352522 -8.478373 8.474875 -1.730415 26.386484 0.771509 0.713817 -10.988416 1.722455 4.556811 -8.078553 5.427781 -7.464490 45.747260 -0.014960 -1.932360 -18.465250 -8.974403 12.145701 0.400903 -27.077378 24.423009 -10.265050 34.885503 -54.262501 -13.075065 -3.203595 2.913752 0.975070 -0.259920 0.280170 0.089710 5.672591 -13.023714 4.102468 52.260157 -18.523185 -20.594514 22.233913 58.120274 8.450745 1.864129 -1.636322 -0.103110 -0.013230 -0.279730 -0.473280 
-1.757540 17.270340 -1.777970 -2.110508 22.446697 -1.454508 -15.391558 13.796282 3.013841 0.007695 -1.210937 -3.301096 -4.980065 9.342083 32.769542 0.212899 6.537377 2.377430 0.583720 0.052010 0.704110 17.930667 -10.332482 3.805449 1.439570 7.676675 -25.988750 10.775807 -8.537812 33.542824 -0.692461 -4.659057 2.892345 -0.119210 -0.280210 0.178500 -3.324303 -2.445215 -8.497451 8.393557 -1.835734 27.301444 1.288291 0.731750 -10.960696 1.409004 4.634249 -8.618868 5.693699 -7.424830 43.772713 0.069400 -1.867930 -17.745910 -8.462589 10.774380 1.097158 -25.630135 25.736013 -10.076450 28.577538 -53.328738 -10.242453 -3.207630 3.016175 0.947470 -0.234600 0.257890 0.096400 5.618362 -11.625817 4.366357 51.092180 -18.331613 -20.401188 20.527124 58.691408 7.815989 1.861773 -1.650740 -0.101620 -0.026440 -0.267440 -0.455900 
-1.794080 17.267400 -1.830370 -2.438994 23.128635 -0.828934 -15.398570 13.786029 2.938925 0.218038 -1.000100 -3.031715 -4.642223 8.881561 31.023154 0.178580 6.244937 2.498918 0.553930 0.026690 0.668990 17.938666 -10.223018 3.938845 0.803232 8.322722 -28.047352 11.407778 -8.815055 34.385536 -0.694297 -4.804946 2.848850 -0.137110 -0.248890 0.180010 -3.331188 -2.505405 -8.504387 8.689976 -2.096916 27.759139 1.580731 0.652773 -10.695507 1.138835 4.693265 -9.092156 5.891280 -7.460180 41.809731 0.323860 -1.966720 -17.150630 -8.250809 9.274367 1.725473 -24.557465 26.625951 -9.876733 25.566337 -51.069146 -8.472252 -3.220121 3.052064 0.916380 -0.212090 0.235000 0.105450 5.762406 -10.202325 4.613913 50.121945 -18.290370 -20.454709 18.043429 58.779416 6.672445 1.857905 -1.647767 -0.100970 -0.030020 -0.260710 -0.438140 
-1.833470 17.266990 -1.882050 -2.770852 24.012908 -0.048521 -15.405482 13.779726 2.869638 0.704407 -0.838850 -2.888537 -4.617575 8.503205 28.967487 0.113497 5.971710 2.613100 0.503460 -0.028430 0.629100 17.943567 -10.123776 4.055486 0.094685 8.805866 -29.929806 12.027015 -8.972155 34.491053 -0.667320 -4.842461 2.843464 -0.163360 -0.205410 0.178210 -3.338260 -2.567257 -8.501970 9.054890 -2.418444 28.195778 1.791049 0.585797 -10.734862 0.899337 4.839663 -9.462256 6.317323 -7.393748 39.670425 0.610800 -1.824580 -16.983360 -7.844249 8.134045 2.291226 -23.300316 27.805650 -9.568547 22.601417 -49.589381 -7.019058 -3.253706 3.070022 0.901290 -0.182430 0.200790 0.097170 5.634649 -9.224198 4.705352 49.273088 -17.930694 -20.257165 15.154884 57.604227 5.330703 1.848864 -1.602605 -0.121830 -0.019970 -0.228490 -0.435520 
-1.865580 17.256840 -1.921260 -3.188547 25.090544 1.233431 -15.394939 13.734492 2.800957 1.450800 -0.805233 -3.279162 -4.996959 8.241363 26.884375 0.035747 5.730812 2.711736 0.458010 -0.086190 0.587290 17.965862 -10.059581 4.156743 -0.416840 9.105437 -31.836171 12.277495 -8.848616 33.784525 -0.597268 -4.729100 2.883381 -0.180590 -0.155890 0.185050 -3.399950 -2.524823 -8.484616 9.880796 -2.760763 27.426744 1.802289 0.485539 -10.464859 0.735156 4.827492 -9.646446 6.427580 -7.508189 37.070549 0.501800 -2.066240 -16.128490 -7.175688 7.435625 2.576624 -22.914036 27.652579 -9.261837 22.028871 -46.997603 -6.186320 -3.313603 3.069562 0.873110 -0.140940 0.152110 0.090360 5.074850 -8.638463 4.788195 48.739122 -17.441140 -19.884678 12.440333 55.610107 4.065123 1.838344 -1.575548 -0.142430 -0.020350 -0.193020 -0.432660 
-1.882910 17.240350 -1.950040 -3.644369 26.398007 2.832233 -15.346699 13.650467 2.737504 2.056381 -0.853264 -4.004516 -5.188313 7.868327 24.929038 -0.027308 5.453827 2.830596 0.421490 -0.117540 0.530290 18.020512 -10.085196 4.207571 -0.791178 9.031823 -33.453766 12.106536 -8.389841 32.003968 -0.485631 -4.418148 2.990646 -0.183560 -0.088580 0.186860 -3.582397 -2.310721 -8.428604 11.476865 -3.404440 25.735027 1.254993 0.124208 -9.950368 0.475306 4.484385 -9.543587 6.013007 -7.467278 34.165309 1.056360 -2.736590 -14.835210 -6.538782 7.171264 2.686465 -23.057583 26.757262 -8.934777 24.251748 -43.521186 -6.051077 -3.393708 3.055652 0.815180 -0.094730 0.095800 0.101490 4.689712 -8.398347 4.625011 48.249014 -16.616317 -19.301894 9.689251 52.859317 2.789485 1.846497 -1.558519 -0.152090 -0.013030 -0.168420 -0.404500 
-1.897550 17.219150 -1.970300 -3.986924 27.783337 4.623204 -15.303345 13.570094 2.681891 2.520241 -0.957917 -5.029566 -5.186112 7.435437 23.185965 -0.108147 5.180063 2.942543 0.399810 -0.134490 0.479840 18.072742 -10.133574 4.209996 -0.765664 8.742959 -34.758207 11.171487 -7.557398 29.539915 -0.340867 -3.945348 3.155355 -0.168190 -0.025500 0.187880 -3.752413 -2.103812 -8.325678 12.938522 -3.941540 23.443553 0.888455 -0.313664 -8.984671 0.338416 4.035566 -9.319345 5.486031 -7.561155 30.935619 1.151360 -3.418090 -13.504940 -6.156669 7.049101 2.633098 -23.941096 25.357440 -8.852501 25.925831 -39.873099 -5.792960 -3.478514 3.051876 0.752000 -0.044380 0.032180 0.114630 4.400599 -8.267921 4.484610 47.805025 -16.123554 -18.902571 7.817674 50.923324 1.920708 1.839566 -1.577839 -0.163950 -0.008640 -0.147630 -0.381380 
-1.908060 17.201260 -1.978610 -4.191305 28.843863 6.447020 -15.261559 13.479414 2.646605 2.878689 -1.011314 -5.920498 -5.342587 7.039484 21.233097 -0.210439 4.943809 3.050648 0.386580 -0.158080 0.445690 18.124417 -10.211674 4.161010 -0.392881 8.307737 -35.436629 9.683776 -6.405925 26.062130 -0.178097 -3.319311 3.381165 -0.145130 0.046270 0.193510 -3.905502 -1.858884 -8.193390 14.120585 -4.205184 20.836750 0.554676 -0.671330 -7.824779 0.297988 3.702687 -9.117940 5.268087 -7.675657 27.922902 0.755050 -3.851120 -12.127040 -5.946877 6.845319 2.621796 -24.655289 24.481992 -8.848664 26.204204 -37.122596 -5.427753 -3.563407 3.051883 0.706000 0.014210 -0.034420 0.131070 4.141698 -8.127427 4.327892 47.389004 -15.472119 -18.370180 6.171146 48.380647 1.145128 1.822986 -1.589366 -0.193460 0.007980 -0.125410 -0.372110 
-1.921140 17.186980 -1.976140 -4.154264 30.135561 8.259267 -15.219347 13.374531 2.612557 3.049165 -1.105863 -6.915249 -5.288700 6.647564 19.732635 -0.298414 4.741891 3.149803 0.367720 -0.180070 0.405100 18.175565 -10.314770 4.090489 -0.133234 7.741394 -35.736279 8.353704 -5.323156 21.975264 -0.023778 -2.726003 3.604303 -0.120120 0.126180 0.196820 -4.059089 -1.560951 -8.045160 15.063058 -4.348372 18.215443 0.027888 -1.015043 -7.010114 0.240310 3.584333 -8.911695 5.476633 -8.000477 25.095286 0.196820 -4.364980 -10.220450 -5.772078 6.686562 2.599355 -24.638108 23.657638 -8.551206 27.021805 -35.589259 -5.371703 -3.653112 3.061660 0.644690 0.082770 -0.106500 0.149860 3.935791 -8.182355 4.143883 47.476982 -14.771095 -17.699805 4.137674 44.827480 0.274501 1.819223 -1.588589 -0.222020 0.027710 -0.103450 -0.356760 
-1.935670 17.174160 -1.963660 -4.121524 30.960262 9.879054 -15.180972 13.246612 2.570933 3.264594 -1.152085 -7.701497 -5.385247 6.337522 18.242340 -0.368466 4.565355 3.221163 0.374850 -0.161010 0.372260 18.233130 -10.394443 4.020750 0.266830 7.309207 -35.674192 6.969957 -4.312026 17.908230 0.096958 -2.250006 3.775549 -0.075440 0.184360 0.212860 -4.185876 -1.249601 -7.889567 15.684685 -4.202669 15.661743 -0.332894 -1.214125 -6.039823 0.216711 3.537355 -8.576048 5.848498 -8.348650 22.442744 -0.354130 -4.789920 -8.627980 -6.122502 6.565203 2.525589 -24.123209 23.118993 -8.174345 26.906468 -34.665657 -5.228136 -3.728296 3.120615 0.568350 0.146390 -0.168010 0.166700 4.278053 -8.276239 3.814159 47.370231 -14.078136 -16.962276 2.044835 41.630571 -0.528027 1.820132 -1.616361 -0.224090 0.022640 -0.091240 -0.335620 
-1.941500 17.155920 -1.936290 -3.974209 31.635908 11.368515 -15.134485 13.078335 2.513470 3.316173 -1.142905 -8.072862 -5.404700 6.000141 16.613896 -0.430072 4.412738 3.307456 0.400120 -0.122810 0.344250 18.310810 -10.470527 3.947244 0.420711 6.930026 -35.486254 5.913052 -3.565502 14.387454 0.181746 -1.976117 3.889217 -0.013370 0.264370 0.226620 -4.335127 -0.868087 -7.707228 16.301362 -3.956629 12.935713 -1.027338 -1.402527 -4.838701 0.188310 3.430019 -8.135295 6.202079 -8.782450 19.751225 -0.699290 -5.468200 -7.027600 -6.472740 6.618055 2.384549 -22.989796 22.688123 -7.650857 27.357768 -34.908853 -5.443960 -3.801614 3.181975 0.484090 0.221230 -0.234920 0.207300 4.659002 -8.547170 3.466425 47.523867 -13.593664 -16.282501 0.823579 38.466350 -1.075638 1.813876 -1.659425 -0.231330 0.040990 -0.094790 -0.305680 
